<?xml version="1.0" standalone="no"?>
<!DOCTYPE svg PUBLIC "-//W3C//DTD SVG 20010904//EN"
 "http://www.w3.org/TR/2001/REC-SVG-20010904/DTD/svg10.dtd">
<svg version="1.0" xmlns="http://www.w3.org/2000/svg"
 width="219.000000pt" height="219.000000pt" viewBox="0 0 219.000000 219.000000"
 preserveAspectRatio="xMidYMid meet">
<metadata>
Created by potrace 1.14, written by Peter Selinger 2001-2017
</metadata>
<g transform="translate(0.000000,219.000000) scale(0.100000,-0.100000)"
fill="#000000" stroke="none">
<path d="M1002 2149 c-206 -34 -389 -162 -472 -333 -43 -87 -59 -159 -34 -149
8 3 14 0 14 -7 0 -6 4 -9 8 -6 5 3 18 -4 30 -14 12 -11 26 -20 31 -20 6 0 25
-9 43 -20 40 -24 68 -26 68 -4 0 9 5 12 13 8 9 -6 9 -4 1 7 -13 17 -14 49 -2
49 5 0 6 5 3 11 -9 13 15 70 26 63 5 -3 6 2 3 10 -4 10 -1 16 7 16 7 0 10 3 6
6 -5 5 4 18 48 68 26 30 106 83 130 88 11 1 23 6 26 11 5 7 24 13 86 24 35 6
68 -11 56 -30 -4 -6 -1 -7 6 -2 9 5 10 10 2 18 -6 6 -11 14 -11 18 0 11 110
-1 150 -16 3 -1 20 -6 38 -10 17 -4 32 -10 32 -14 0 -3 14 -13 32 -20 49 -22
91 -63 76 -73 -9 -6 -7 -8 6 -6 10 2 23 -6 30 -17 6 -11 15 -23 19 -26 17 -12
56 -109 46 -114 -5 -4 -9 -12 -9 -18 0 -8 3 -8 9 2 6 9 11 -2 15 -33 4 -25 12
-49 18 -52 7 -4 8 -2 4 4 -5 8 0 12 13 12 10 0 21 4 23 8 4 11 141 88 150 85
9 -3 -10 61 -35 122 -55 131 -199 263 -347 318 -105 39 -250 53 -358 36z"/>
<path d="M990 1911 c0 -6 4 -13 10 -16 6 -3 7 1 4 9 -7 18 -14 21 -14 7z"/>
<path d="M1155 1911 c-3 -5 -2 -12 3 -15 5 -3 9 1 9 9 0 17 -3 19 -12 6z"/>
<path d="M1060 1858 c-11 -24 -20 -37 -20 -30 0 6 -11 12 -24 12 -13 0 -26 3
-29 8 -2 4 -2 1 -1 -6 2 -7 -8 -17 -21 -22 -14 -5 -25 -12 -25 -14 0 -3 6 -3
13 -1 12 5 44 -51 39 -68 -1 -5 2 -6 7 -3 5 3 15 -2 22 -11 12 -15 12 -16 -3
-10 -10 3 -18 3 -18 -1 0 -4 -13 -15 -29 -24 -27 -15 -29 -15 -24 -1 4 11 2
14 -5 9 -7 -4 -12 -15 -12 -24 0 -13 -5 -12 -20 8 -11 14 -20 21 -20 16 0 -6
-7 -1 -16 10 -14 18 -15 18 -4 -4 6 -12 15 -20 19 -17 5 3 12 -2 15 -11 12
-31 6 -37 -14 -16 -12 12 -26 22 -31 22 -6 0 -1 -8 11 -18 13 -11 20 -24 16
-30 -10 -16 -28 -15 -24 1 4 18 -35 64 -50 59 -9 -3 -10 3 -2 22 15 40 2 31
-15 -10 -13 -32 -13 -40 -1 -66 8 -15 11 -26 6 -23 -10 6 -22 -23 -14 -36 8
-13 -7 -11 -37 5 -18 9 -31 10 -40 4 -11 -8 -11 -9 1 -5 9 3 25 -2 35 -10 19
-15 19 -15 -2 -10 -13 3 -23 1 -23 -4 0 -5 -5 -9 -11 -9 -5 0 -7 5 -4 10 11
17 -7 11 -21 -7 -13 -17 -13 -17 -14 2 0 12 -3 16 -8 9 -9 -14 -45 -27 -37
-14 3 6 1 10 -4 10 -6 0 -11 -5 -11 -11 0 -8 -6 -7 -17 2 -11 10 -14 10 -9 2
4 -7 2 -13 -3 -13 -6 0 -11 6 -11 13 0 8 -3 8 -8 2 -17 -24 -53 -10 -75 30
-12 22 -37 49 -54 61 -18 12 -30 24 -26 27 3 4 -6 1 -20 -6 -32 -14 -41 -35
-26 -53 6 -7 7 -19 3 -25 -4 -7 -3 -9 3 -6 5 4 19 -3 31 -13 12 -11 26 -20 32
-20 6 0 8 -4 5 -10 -3 -5 0 -7 8 -4 28 10 35 -21 34 -163 -1 -79 -3 -143 -5
-143 -2 0 -13 5 -25 11 -21 10 -21 10 -3 -5 11 -9 23 -16 26 -16 4 0 7 -47 6
-105 0 -66 -4 -105 -11 -105 -6 0 -7 -3 0 -8 16 -11 18 -44 3 -53 -10 -7 -10
-9 0 -9 16 0 13 -80 -2 -80 -7 0 -8 -3 -1 -8 14 -10 20 -66 7 -58 -6 3 -14 1
-18 -5 -4 -7 -3 -9 4 -5 6 3 14 -3 17 -15 5 -14 2 -25 -6 -30 -12 -7 -12 -9 0
-9 11 0 11 -3 0 -17 -8 -9 -9 -14 -3 -10 7 4 11 -8 12 -34 1 -23 5 -46 9 -51
3 -6 2 -8 -3 -5 -6 3 -9 -9 -9 -26 2 -39 -23 -80 -42 -73 -8 4 -11 1 -8 -5 4
-6 13 -8 21 -5 19 7 18 -11 -1 -22 -9 -4 -17 -19 -17 -33 -1 -13 -10 -36 -21
-51 -10 -16 -14 -28 -8 -28 6 0 11 -7 11 -15 0 -8 5 -15 11 -15 5 0 9 -8 7
-18 -2 -11 0 -20 5 -20 20 -5 25 0 20 18 -4 15 0 20 16 20 18 0 19 -3 11 -24
-7 -20 -6 -24 8 -22 10 2 17 12 17 26 0 13 5 25 12 27 14 5 26 -14 14 -22 -14
-8 -2 -35 15 -35 8 0 14 7 14 15 0 8 7 16 15 16 22 2 29 4 40 10 23 14 45 18
45 9 0 -6 -6 -10 -14 -10 -8 0 -16 -4 -18 -8 -6 -15 -100 -62 -111 -55 -6 4
-7 1 -2 -6 9 -15 -36 -11 -47 4 -4 6 -41 10 -83 10 -65 0 -75 -2 -75 -17 0
-10 11 -28 25 -40 l25 -22 -27 -28 c-15 -15 -25 -29 -22 -29 2 -1 29 -2 59 -3
52 -1 55 -3 55 -26 0 -19 5 -25 24 -26 13 -1 27 -7 31 -14 9 -15 102 -37 190
-45 36 -4 76 -9 90 -12 42 -9 561 -11 630 -3 36 5 92 11 125 14 102 10 187 29
192 43 3 7 13 13 23 13 21 0 44 25 35 40 -6 10 3 12 64 14 42 1 49 17 21 44
l-21 20 21 15 c14 10 20 23 18 38 -3 22 -8 24 -68 25 -44 1 -71 -4 -82 -13 -9
-8 -21 -12 -27 -9 -5 4 -14 -2 -20 -11 -13 -24 -112 -45 -128 -27 -7 6 -10 14
-7 16 8 9 11 68 3 68 -5 0 -8 11 -7 25 2 20 6 23 27 18 17 -4 22 -2 17 6 -4 6
-14 11 -22 11 -8 0 -14 6 -13 13 3 17 -12 48 -21 42 -4 -2 -16 2 -26 10 -18
13 -17 13 9 11 16 -2 27 1 26 8 -4 22 13 44 31 41 13 -2 17 1 14 10 -4 10 0
13 13 10 11 -2 20 2 20 8 0 7 -19 13 -46 14 -61 2 -81 7 -90 22 -5 7 -16 9
-27 5 -10 -4 -16 -4 -12 0 12 14 79 25 71 12 -4 -6 -1 -6 9 2 13 10 17 10 21
-2 4 -9 -1 -16 -11 -19 -12 -3 -11 -4 3 -3 15 1 19 7 17 26 -2 18 0 21 6 12 5
-8 13 -14 18 -15 5 -1 8 -11 7 -22 l-3 -20 9 20 c6 14 4 25 -7 38 -14 15 -14
17 1 17 8 0 23 3 31 6 12 5 15 2 10 -12 -5 -15 -4 -16 4 -4 14 18 6 30 -19 30
-10 0 -19 7 -19 15 0 20 4 30 10 28 3 0 11 5 18 13 11 12 8 14 -20 10 -18 -2
-42 -8 -53 -12 -17 -7 -18 -6 -5 8 8 9 18 14 22 12 4 -2 9 0 12 5 4 5 19 8 34
6 15 -2 21 -2 15 1 -20 9 -15 24 5 18 16 -5 16 -5 0 9 -10 8 -14 18 -10 22 4
5 1 5 -6 1 -7 -4 -10 -11 -7 -16 3 -5 1 -11 -4 -14 -5 -3 -12 2 -15 11 -4 9
-1 20 6 25 7 4 9 8 4 8 -5 0 8 13 28 29 30 24 33 30 19 35 -10 4 -14 4 -11 0
8 -8 -14 -34 -24 -27 -5 2 -8 -1 -8 -7 0 -6 -4 -8 -10 -5 -5 3 -10 0 -10 -7 0
-9 -3 -9 -10 2 -8 13 -10 12 -10 -2 0 -10 -6 -18 -12 -18 -7 0 -26 -7 -42 -15
-30 -16 -30 -16 -12 4 10 11 21 20 25 19 19 -2 31 3 26 12 -3 5 6 12 20 16 18
4 23 10 16 17 -7 7 -14 7 -24 -1 -10 -9 -17 -8 -27 1 -10 10 -12 9 -7 -6 4
-11 3 -16 -3 -12 -6 3 -10 2 -10 -4 0 -6 -7 -7 -17 -4 -11 4 -14 3 -9 -5 4 -7
2 -12 -3 -12 -16 0 -13 20 4 26 8 4 12 11 8 17 -3 5 -2 7 4 4 5 -3 20 7 33 24
28 33 47 39 28 10 -7 -11 -16 -18 -20 -15 -4 3 -5 -2 -1 -11 4 -13 8 -14 14
-4 6 10 13 10 33 1 18 -8 27 -8 32 -1 9 16 -17 30 -41 22 -17 -5 -18 -4 -7 10
13 16 52 20 52 5 0 -4 9 -12 20 -18 14 -7 20 -7 20 0 0 5 -7 10 -17 10 -9 0
-13 3 -10 6 3 4 -5 15 -18 26 -24 19 -26 38 -4 38 6 0 8 -4 4 -9 -3 -5 -1 -13
5 -16 6 -4 10 -3 9 2 -1 4 1 16 6 26 4 10 5 21 1 24 -3 4 -6 -1 -6 -9 0 -25
-36 -10 -37 15 -2 21 -1 22 13 3 8 -11 14 -15 14 -10 0 6 -5 15 -12 22 -6 6
-8 15 -4 19 4 4 12 0 17 -10 6 -9 19 -17 30 -17 12 0 17 -4 14 -11 -4 -6 1
-13 12 -15 14 -4 18 -13 17 -37 -3 -44 -3 -45 -15 -24 -6 9 -15 14 -21 11 -7
-5 -9 2 -4 22 5 24 4 26 -5 11 -11 -19 -5 -51 8 -44 28 14 54 -96 28 -115 -7
-5 -6 -8 0 -8 7 0 10 -39 10 -105 0 -103 0 -104 -22 -100 -13 2 -25 0 -28 -5
-3 -5 3 -7 14 -5 18 3 19 0 14 -28 -6 -32 -21 -50 -34 -41 -4 2 -4 -9 1 -26 5
-16 5 -30 0 -30 -10 0 -43 -70 -36 -77 3 -4 6 -1 6 6 0 8 5 7 16 -4 9 -9 14
-25 11 -35 -6 -25 15 -27 34 -3 10 11 10 14 2 9 -15 -8 -17 3 -4 22 6 10 10
10 20 -2 7 -8 10 -20 6 -26 -3 -5 -3 -15 1 -21 9 -15 24 9 24 38 0 16 4 21 16
16 10 -4 14 -14 11 -29 -3 -18 0 -24 14 -24 12 0 16 5 13 14 -3 8 2 26 12 41
16 25 16 27 -2 53 -10 15 -19 41 -19 58 1 22 -3 30 -12 27 -8 -3 -13 3 -13 19
0 13 -6 30 -12 37 -10 11 -10 13 0 7 6 -4 12 -3 12 2 0 6 -7 13 -16 16 -8 3
-12 10 -9 16 4 6 10 8 14 6 4 -3 8 1 8 9 0 8 -4 12 -9 9 -4 -3 -8 20 -8 51 0
31 4 54 8 51 5 -3 9 1 9 9 0 8 -4 12 -9 9 -4 -3 -7 40 -7 95 0 55 -2 105 -6
111 -3 5 -2 10 3 10 5 0 6 17 2 40 -4 22 -5 40 -1 40 6 0 4 221 -2 273 -2 15
-1 27 2 27 6 0 4 134 -3 163 -2 9 0 17 5 17 4 0 6 7 3 15 -4 10 0 13 15 10 12
-2 20 1 18 8 -1 7 6 11 16 11 10 -1 16 0 14 2 -3 3 9 18 25 34 42 42 36 75
-14 75 -20 1 -36 -1 -34 -3 2 -1 -8 -16 -23 -31 -35 -38 -51 -59 -51 -66 0 -3
0 -8 0 -11 0 -4 -8 0 -17 7 -11 10 -14 10 -9 2 5 -9 -1 -13 -20 -13 -23 0 -25
2 -14 15 11 13 10 14 -4 9 -9 -3 -16 -10 -16 -15 0 -5 -7 -9 -16 -9 -14 0 -15
2 -3 18 11 13 8 12 -9 -3 -20 -16 -25 -17 -32 -5 -6 8 -10 17 -11 20 -6 34 -8
43 -14 48 -7 7 0 -34 9 -58 5 -12 0 -16 -19 -16 -25 0 -33 10 -16 20 5 4 12 0
14 -6 4 -9 6 -10 6 -1 1 19 -17 25 -31 10 -12 -13 -33 -13 -68 0 -8 4 -21 5
-28 4 -16 -3 13 58 37 76 11 8 12 12 4 13 -7 0 -13 9 -13 20 0 23 -1 24 -35 8
-14 -6 -25 -17 -25 -24 0 -9 -6 -11 -17 -7 -16 6 -16 5 -5 -10 8 -9 11 -21 7
-27 -10 -16 -35 7 -28 26 4 10 0 12 -11 8 -13 -5 -15 -2 -9 12 6 16 5 17 -9 6
-14 -11 -18 -10 -27 5 -6 10 -11 14 -11 10 0 -5 -7 -1 -16 7 -8 9 -20 13 -26
10 -6 -4 -9 -1 -6 6 2 8 10 16 18 18 8 3 10 0 5 -8 -6 -9 -4 -11 4 -5 9 5 10
10 2 18 -7 7 -16 6 -29 -6 -33 -30 -35 -18 -3 18 17 20 31 43 31 51 0 8 5 12
10 9 6 -4 7 -11 4 -17 -4 -6 2 -6 15 1 25 14 28 23 4 14 -12 -5 -14 -3 -8 7 5
8 4 11 -2 7 -14 -9 -65 31 -57 44 3 5 11 6 17 3 7 -4 8 -3 4 1 -16 18 -34 13
-33 -9 1 -12 -4 -20 -11 -18 -7 1 -13 -2 -13 -8 0 -23 -16 -8 -18 18 -2 25
-25 52 -44 52 -5 0 -18 -19 -28 -42z m70 -167 c0 -4 10 -7 23 -6 30 3 42 -5
26 -17 -11 -7 -9 -8 4 -4 33 11 143 -63 117 -79 -5 -3 -10 -1 -10 5 0 6 -5 8
-12 4 -7 -5 -8 -3 -3 6 5 9 4 11 -4 6 -6 -4 -9 -12 -6 -17 4 -5 2 -9 -4 -9
-18 0 -23 20 -7 26 9 3 16 11 16 17 0 5 -9 2 -20 -8 -22 -20 -28 -8 -7 15 9
11 8 11 -7 0 -18 -13 -19 -13 -13 2 5 13 0 16 -24 13 -23 -3 -32 1 -39 18 -9
20 -10 20 -9 2 2 -35 -1 -46 -11 -40 -5 3 -7 11 -4 18 2 7 -6 22 -18 33 l-23
19 19 -23 c11 -12 17 -25 14 -28 -3 -3 -15 6 -26 20 -16 21 -21 23 -26 10 -4
-9 -2 -13 5 -8 7 4 10 1 7 -7 -3 -8 -13 -14 -24 -14 -12 0 -18 -6 -18 -17 1
-10 -2 -18 -7 -18 -8 0 -13 15 -10 33 1 7 -15 11 -31 8 -12 -2 -9 9 5 24 8 7
25 15 38 17 51 7 89 7 89 -1z m-155 -31 c-5 -9 1 -12 21 -9 10 1 23 -24 18
-33 -3 -4 -10 -8 -15 -8 -6 0 -7 5 -3 12 4 7 3 8 -4 4 -7 -4 -12 -3 -12 2 0
15 -28 23 -36 10 -4 -6 -3 -8 4 -4 6 3 14 1 18 -5 5 -8 1 -10 -14 -7 -16 4
-19 2 -15 -10 4 -10 2 -13 -5 -8 -7 4 -22 -5 -37 -21 -13 -15 -24 -23 -24 -18
0 13 26 43 67 78 35 28 48 34 37 17z m149 -29 c10 -11 15 -25 11 -30 -8 -14
-25 -14 -25 0 0 5 5 7 11 4 6 -4 5 2 -2 14 -9 14 -16 17 -20 9 -4 -7 -5 -16
-3 -20 3 -5 -1 -10 -8 -13 -9 -4 -13 -23 -12 -58 0 -49 -1 -53 -23 -53 -13 0
-23 4 -23 9 0 5 -6 5 -12 -1 -7 -5 -28 -9 -46 -7 -35 3 -53 -11 -28 -21 9 -3
13 -10 10 -15 -3 -5 0 -9 5 -9 6 0 11 4 11 10 0 11 35 8 46 -3 10 -10 26 -9
20 2 -3 4 5 8 17 7 19 -1 22 -6 22 -45 -1 -29 -6 -46 -14 -49 -10 -3 -12 1 -7
13 5 15 4 16 -9 5 -11 -9 -18 -10 -28 -1 -8 6 -17 8 -20 4 -4 -3 -7 -1 -7 5 0
15 17 16 25 2 3 -5 11 -10 17 -10 7 0 7 4 -1 13 -6 8 -8 17 -5 20 4 3 -3 5
-15 4 -11 -1 -24 -10 -27 -20 -5 -16 -8 -17 -16 -6 -8 11 -11 11 -15 1 -4 -10
-8 -9 -18 5 -11 15 -16 16 -27 5 -11 -11 -10 -12 5 -7 9 4 17 3 17 -3 0 -6 -9
-9 -20 -7 -11 2 -22 0 -25 -5 -3 -4 -21 -6 -41 -4 -32 3 -34 1 -22 -13 8 -10
8 -14 1 -10 -6 4 -15 3 -18 -3 -5 -8 -12 -7 -23 2 -13 11 -15 10 -9 -4 4 -12
-2 -21 -24 -32 -16 -8 -26 -10 -23 -4 4 6 1 8 -7 6 -8 -3 -13 -10 -12 -15 1
-6 -6 -10 -15 -9 -19 1 -93 66 -75 66 7 0 15 -5 19 -11 4 -8 9 -8 17 0 6 6 15
11 21 11 6 0 6 -4 -1 -11 -11 -11 -6 -49 6 -49 4 0 8 7 9 15 1 8 3 22 4 30 2
17 1 17 22 9 15 -6 15 -8 -1 -21 -17 -13 -17 -14 2 -5 11 5 28 8 38 7 15 -3
16 -1 6 11 -7 9 -8 14 -1 14 6 0 9 8 8 18 -2 9 -7 16 -12 14 -5 -2 -8 -9 -7
-16 2 -6 -7 -12 -19 -13 -15 -2 -18 1 -10 9 8 8 8 15 1 24 -8 10 -4 12 18 9
15 -2 30 -4 33 -5 3 -2 9 -2 13 -1 5 1 6 -3 2 -9 -4 -6 -1 -9 7 -8 15 3 44 39
40 51 -1 4 3 7 8 7 14 0 12 -11 -7 -34 -9 -12 -1 -5 18 14 19 19 31 38 26 41
-5 3 -1 9 8 12 10 4 14 3 9 -4 -3 -6 3 -5 15 3 17 10 18 14 6 21 -8 4 -12 14
-9 22 4 8 10 12 15 9 5 -3 7 -9 4 -14 -3 -5 0 -12 6 -16 7 -4 9 -3 6 2 -3 5
10 11 29 12 57 3 62 5 57 21 -3 10 -2 12 4 5 16 -22 40 -12 40 17 0 19 -7 31
-24 38 -15 7 -22 7 -18 1 4 -6 -2 -9 -14 -7 -25 4 -39 17 -20 18 8 1 29 2 46
4 18 1 30 -1 27 -6 -3 -5 3 -6 12 -2 11 4 13 8 6 11 -8 2 -9 9 -2 23 13 24 22
24 44 0z m-54 -1 c0 -5 -4 -10 -10 -10 -5 0 -10 5 -10 10 0 6 5 10 10 10 6 0
10 -4 10 -10z m106 -37 c3 -38 3 -38 -12 -13 -9 14 -13 17 -10 7 4 -11 2 -16
-4 -12 -6 4 -10 3 -9 -2 3 -19 -2 -34 -9 -29 -11 7 -8 -31 3 -41 4 -5 5 -2 0
6 -5 9 -4 12 3 7 8 -5 10 -1 6 11 -5 16 -5 17 5 1 7 -11 19 -15 34 -11 33 7
59 5 70 -6 7 -7 4 -9 -11 -6 -12 2 -24 0 -27 -5 -3 -5 4 -7 15 -5 11 2 20 0
20 -4 0 -4 6 -8 14 -8 8 0 12 6 9 13 -2 6 1 15 7 19 6 4 11 1 9 -6 -3 -26 1
-40 10 -34 5 3 12 1 16 -4 3 -6 13 -8 23 -5 13 5 14 4 3 -4 -9 -7 -10 -12 -2
-16 6 -4 11 -2 11 4 0 6 4 8 10 5 5 -3 -3 -18 -18 -33 -16 -15 -18 -19 -7 -9
12 9 25 17 30 17 5 0 0 -7 -11 -16 -10 -8 -13 -12 -5 -8 9 5 12 3 7 -5 -5 -7
-2 -10 6 -9 7 2 12 -3 10 -11 -3 -12 -1 -12 13 -1 13 11 18 10 29 -5 12 -17
13 -17 19 -1 4 10 3 15 -3 11 -6 -3 -10 -4 -10 -1 0 3 8 10 18 15 14 8 19 6
19 -5 0 -7 -4 -14 -9 -14 -5 0 -6 -4 -3 -10 3 -5 0 -10 -7 -10 -9 0 -9 -3 2
-10 11 -7 11 -10 2 -10 -7 0 -10 -5 -6 -11 4 -8 9 -7 15 2 4 7 5 17 2 23 -4 5
1 7 11 3 9 -4 15 -3 12 2 -3 5 5 8 19 7 14 0 23 -5 21 -11 -2 -5 -9 -9 -15 -7
-6 1 -11 -3 -11 -9 0 -5 -4 -8 -9 -4 -5 3 -12 1 -16 -4 -3 -6 4 -8 15 -6 13 3
18 0 15 -8 -4 -7 1 -3 9 7 14 17 20 16 18 -5 -2 -12 27 -5 32 7 3 8 13 11 23
8 13 -5 11 -2 -4 10 -30 23 -30 41 0 21 21 -13 26 -13 43 0 10 8 14 15 7 15
-6 0 -15 -4 -18 -10 -3 -6 -22 1 -44 15 -24 17 -45 23 -57 19 -18 -7 -18 -6
-2 12 17 17 19 17 45 -2 44 -32 48 -33 63 -22 13 8 12 9 -1 5 -22 -7 -61 21
-53 36 4 7 4 9 0 5 -4 -3 -20 -3 -36 2 -18 5 -32 4 -39 -3 -8 -8 -11 -8 -11 0
0 7 4 14 9 18 5 3 8 19 6 35 -2 17 0 30 4 30 13 0 21 -27 15 -45 -4 -8 -1 -15
6 -15 6 0 8 5 4 11 -4 7 -1 10 7 7 8 -3 13 -11 12 -17 -2 -6 2 -11 7 -11 16 0
12 14 -10 38 -25 26 -25 27 0 29 11 1 18 -2 15 -8 -4 -5 -1 -9 5 -9 6 0 8 -4
5 -10 -4 -6 1 -7 12 -3 16 6 17 5 3 -13 -14 -18 -14 -18 3 -5 18 14 18 16 1
28 -10 7 -14 14 -8 14 35 5 61 3 73 -6 11 -7 13 -7 8 2 -5 8 -1 11 12 10 11 0
17 -5 15 -9 -3 -4 1 -8 8 -8 9 0 9 -3 -2 -10 -8 -5 -10 -10 -5 -10 6 0 11 -9
11 -19 0 -15 -3 -17 -13 -9 -11 8 -12 7 -7 -7 6 -14 4 -16 -6 -10 -8 5 -11 4
-6 -3 4 -6 12 -9 19 -6 9 3 13 -7 13 -31 0 -19 -5 -35 -11 -35 -5 0 -3 -5 5
-10 13 -9 13 -10 0 -10 -13 0 -13 -1 0 -10 11 -7 11 -10 2 -10 -8 0 -10 -5 -5
-12 11 -19 12 -38 2 -38 -6 0 -7 -6 -2 -12 11 -18 10 -42 -2 -50 -6 -5 -4 -12
5 -18 14 -9 7 -14 -13 -11 -4 1 -10 -6 -13 -14 -3 -8 -11 -12 -17 -8 -6 3 -7
1 -3 -5 10 -17 26 -15 26 3 0 8 6 12 13 9 8 -3 14 -11 14 -19 0 -8 -4 -12 -9
-9 -4 3 -8 0 -8 -5 0 -6 5 -11 10 -11 6 0 10 -5 10 -11 0 -5 -5 -7 -12 -3 -7
5 -8 3 -3 -6 12 -20 12 -90 0 -90 -6 0 -11 9 -12 20 -1 13 2 18 9 14 7 -4 8
-2 4 5 -4 6 -11 9 -16 6 -14 -9 -7 -46 11 -56 19 -10 19 -41 0 -47 -6 -2 -10
2 -9 9 2 7 -8 16 -22 20 -14 4 -20 8 -15 8 6 1 1 7 -9 13 -16 9 -22 6 -37 -13
-10 -13 -14 -26 -8 -27 6 -3 5 -10 -3 -20 -11 -13 -11 -14 1 -8 9 6 12 5 9 -5
-3 -8 1 -21 8 -29 11 -13 10 -16 -6 -16 -10 0 -18 3 -18 6 1 18 -3 30 -12 30
-5 0 -7 -6 -4 -14 3 -9 -3 -17 -15 -21 -12 -3 -21 -10 -21 -15 0 -4 -7 -10
-15 -14 -13 -4 -14 -2 -5 14 6 11 18 20 28 20 15 0 15 2 2 10 -21 13 -22 50
-1 42 14 -5 14 -3 2 11 -9 12 -10 21 -4 30 6 6 9 20 8 30 -2 9 1 14 7 11 6 -4
8 1 4 14 -4 11 -2 23 3 26 5 4 8 15 6 26 -2 11 1 23 7 26 7 5 8 2 3 -6 -5 -9
-4 -11 4 -6 8 6 9 12 2 20 -8 10 -4 13 19 13 17 0 30 -4 30 -9 0 -4 -4 -8 -10
-8 -5 0 -19 -9 -30 -20 -11 -11 -15 -20 -10 -20 6 0 10 -5 10 -11 0 -5 -4 -8
-9 -4 -15 9 -24 -14 -11 -30 8 -10 8 -15 -4 -22 -13 -7 -12 -10 5 -21 12 -8
18 -9 15 -3 -6 10 32 37 47 33 4 -1 7 2 7 8 0 13 -17 13 -25 0 -3 -5 -12 -10
-18 -10 -7 1 -1 10 12 20 20 17 21 20 5 20 -14 0 -16 2 -5 13 10 10 16 7 32
-13 15 -20 18 -21 12 -5 -9 27 -24 36 -48 29 -19 -6 -19 -5 -4 11 16 16 18 16
43 0 14 -10 26 -13 26 -9 0 5 5 2 11 -6 7 -10 9 -11 7 -2 -2 8 -8 14 -13 14
-6 0 -18 4 -28 10 -14 7 -16 13 -7 23 12 15 -10 28 -34 19 -8 -3 -16 3 -19 15
-3 14 0 21 10 21 8 0 11 -5 7 -12 -4 -7 -3 -8 5 -4 6 4 9 11 6 16 -3 5 3 11
14 15 11 3 22 12 25 20 3 9 13 12 23 9 17 -5 17 -5 0 6 -14 9 -21 7 -37 -12
-17 -20 -21 -21 -29 -8 -6 8 -9 25 -7 37 6 31 -27 56 -77 58 -23 2 -42 4 -42
5 0 1 -9 3 -19 5 -10 2 -23 10 -27 17 -5 7 -9 9 -9 4 0 -5 -9 -1 -20 9 -11 10
-20 15 -20 10 0 -4 -7 -1 -16 6 -9 7 -23 14 -31 15 -25 4 -27 13 -7 36 17 20
17 21 1 9 -13 -11 -17 -11 -15 -2 2 7 -8 20 -22 29 -17 12 -22 13 -16 3 6 -9
5 -12 0 -8 -6 3 -16 1 -24 -5 -13 -8 -13 -9 1 -5 9 3 21 -4 28 -14 6 -11 16
-17 21 -14 6 3 7 -1 3 -10 -5 -13 -7 -14 -14 -3 -7 10 -9 10 -9 -2 0 -13 -1
-13 -10 0 -9 13 -10 13 -10 0 0 -13 -1 -13 -10 0 -8 12 -10 12 -10 1 0 -8 -3
-11 -7 -8 -3 4 -12 2 -20 -5 -11 -9 -13 -8 -11 2 2 7 -3 15 -10 17 -7 3 -11
-1 -10 -9 2 -7 -4 -13 -12 -13 -8 0 -14 6 -12 13 2 10 -4 11 -19 7 l-22 -7 22
23 21 23 -22 12 -23 13 23 -2 c12 -1 22 -5 22 -10 0 -4 6 -5 13 0 18 11 40 13
52 3 6 -5 18 -3 28 5 18 13 18 14 0 23 -10 5 -33 8 -51 7 -18 -1 -36 3 -39 8
-3 5 -9 3 -14 -4 -7 -11 -9 -11 -9 -1 0 7 -4 11 -9 8 -11 -7 -8 45 3 63 6 10
5 12 -2 7 -7 -4 -12 -2 -12 3 0 6 6 11 14 11 7 0 19 14 26 30 15 37 22 33 26
-17z m44 17 c13 -32 14 -32 74 -34 53 -1 71 -29 37 -57 -13 -10 -18 -19 -12
-19 7 0 9 -6 5 -12 -4 -8 -3 -10 2 -5 5 5 10 13 10 18 1 5 2 12 3 15 0 3 8 -2
17 -10 8 -9 13 -20 10 -25 -4 -5 2 -8 11 -6 19 3 53 -22 53 -38 0 -6 -9 -2
-19 7 -11 10 -24 15 -29 12 -5 -3 -15 1 -22 10 -7 8 -19 13 -27 10 -8 -3 -16
1 -19 9 -4 8 -11 12 -17 8 -6 -3 -7 -1 -3 5 12 19 -3 35 -20 21 -11 -9 -15 -8
-19 3 -6 14 -65 21 -65 8 0 -4 -7 -7 -15 -7 -8 0 -12 4 -9 9 3 4 0 8 -5 8 -6
0 -11 5 -11 10 0 6 8 10 18 8 12 -2 17 4 17 20 0 12 7 27 15 32 13 8 12 10 -3
10 -10 0 -15 5 -12 10 11 17 22 11 35 -20z m-243 -4 c-6 -16 16 -40 26 -29 4
3 7 1 7 -7 0 -10 3 -10 15 0 19 16 34 5 28 -21 -4 -15 -9 -17 -17 -9 -8 8 -7
13 4 20 10 7 11 10 2 10 -7 0 -18 -11 -24 -25 -6 -14 -14 -25 -17 -26 -38 -6
-64 -4 -68 7 -2 7 -13 12 -23 11 -20 -1 -22 -20 -6 -47 5 -8 6 -12 1 -8 -10
10 -47 -10 -40 -22 3 -5 1 -11 -4 -14 -18 -11 -21 12 -5 29 9 9 14 19 10 22
-3 3 -1 12 5 19 9 10 7 15 -5 20 -9 3 -16 13 -16 22 0 13 3 12 21 -4 13 -12
19 -14 17 -5 -2 7 3 16 10 18 6 3 10 -1 9 -9 -2 -7 -2 -10 0 -5 8 14 22 7 29
-15 6 -19 7 -19 16 -5 7 13 14 15 27 7 19 -10 31 -4 31 14 0 7 -4 6 -8 -1 -6
-10 -12 -10 -28 2 -19 15 -19 15 1 9 20 -5 20 -5 1 10 -10 8 -23 13 -27 10 -5
-3 -9 -1 -9 5 0 5 8 15 18 20 23 14 25 13 19 -3z m-163 -21 c-4 -8 -10 -12
-15 -9 -14 8 -10 24 6 24 9 0 12 -6 9 -15z m131 -11 c11 4 13 -8 6 -31 -1 -2
-10 6 -21 17 -12 12 -18 26 -13 33 5 8 9 7 11 -6 2 -10 10 -16 17 -13z m-87
-55 c-5 -3 -8 -10 -6 -15 1 -5 -6 -24 -15 -41 -10 -18 -15 -33 -11 -33 4 0 1
-6 -5 -14 -13 -15 -51 -18 -51 -3 0 4 -18 6 -39 3 -30 -4 -39 -2 -35 8 5 14
51 16 71 3 6 -4 14 -3 18 3 4 6 10 8 15 5 5 -3 11 -1 15 5 3 6 -1 13 -9 16 -9
3 -13 10 -10 16 3 5 12 4 20 -3 9 -7 14 -8 13 -3 -4 22 2 35 13 28 7 -4 8 -3
4 5 -4 6 -11 9 -16 6 -4 -3 -11 2 -14 11 -5 12 -1 14 17 9 19 -5 20 -5 4 5 -9
6 -15 15 -12 20 3 5 14 2 23 -8 10 -9 14 -20 10 -23z m-48 23 c0 -4 -6 -14
-12 -21 -8 -8 -8 -11 -2 -8 7 4 14 -2 17 -14 3 -12 3 -18 0 -15 -10 10 -32
-14 -27 -29 7 -16 -12 -29 -21 -15 -4 6 -11 7 -17 4 -7 -4 -8 -2 -4 4 9 16 -7
15 -22 0 -9 -9 -12 -9 -12 0 0 7 5 12 11 12 5 0 7 5 3 11 -4 8 -14 -1 -24 -22
-17 -32 -17 -61 0 -56 4 1 8 -2 8 -8 0 -5 -4 -9 -9 -7 -5 1 -9 -3 -9 -10 0 -6
-3 -8 -7 -4 -4 4 -8 15 -8 24 0 10 -6 15 -15 13 -8 -2 -21 -4 -27 -4 -7 0 -13
-4 -13 -8 0 -4 9 -7 20 -6 11 1 20 6 20 11 0 5 3 7 6 4 3 -4 0 -16 -6 -28 -9
-16 -15 -19 -24 -10 -20 16 -49 1 -43 -22 4 -13 -4 -25 -29 -41 -48 -31 -46
-38 8 -41 26 -2 53 -16 30 -16 -7 0 -12 -5 -12 -11 0 -5 5 -7 10 -4 9 6 14 -8
11 -29 -1 -4 4 -14 10 -22 7 -8 7 -14 1 -14 -17 0 -39 33 -25 37 8 3 5 11 -8
24 -23 23 -30 24 -23 4 4 -8 1 -15 -5 -15 -6 0 -11 8 -11 18 0 14 -2 15 -10 2
-11 -17 7 -32 30 -25 11 3 16 -2 16 -15 0 -27 -23 -33 -36 -10 -6 11 -18 19
-28 19 -14 -1 -14 -2 -1 -6 8 -2 23 -17 32 -33 17 -28 17 -29 -1 -39 -11 -6
-23 -7 -27 -3 -5 4 -5 1 -1 -6 5 -7 14 -11 22 -8 16 6 19 -10 4 -19 -6 -4 -19
-1 -28 6 -13 11 -12 8 2 -9 11 -12 14 -22 8 -22 -7 0 -3 -14 9 -34 19 -32 19
-35 3 -44 -16 -9 -15 -10 5 -17 11 -3 19 -10 16 -15 -9 -14 16 -23 28 -11 9 9
8 11 -4 6 -10 -4 -16 0 -16 10 0 17 0 17 21 9 22 -8 20 -31 -4 -44 -16 -9 -22
-6 -36 15 -9 14 -24 24 -33 24 -13 -1 -14 -2 -1 -5 19 -6 45 -44 30 -44 -6 0
-13 7 -16 15 -4 8 -11 15 -16 15 -7 0 -6 -5 1 -13 6 -8 8 -16 5 -20 -3 -3 6
-4 20 -3 17 2 26 -2 26 -11 0 -8 -4 -12 -8 -9 -4 2 -9 -4 -9 -15 -1 -11 5 -19
13 -19 8 0 12 -5 9 -10 -4 -6 -10 -8 -15 -5 -5 3 -8 -4 -7 -15 1 -11 2 -20 2
-20 1 0 12 14 24 31 13 18 20 29 14 26 -5 -3 -15 -2 -22 2 -9 6 -10 11 -2 15
6 4 11 2 11 -4 0 -6 4 -9 9 -5 6 3 13 -1 18 -8 4 -8 18 -19 31 -26 12 -6 22
-17 22 -24 0 -9 -2 -9 -8 0 -8 13 -29 13 -49 0 -7 -5 -13 -4 -13 0 0 5 6 15
13 23 10 12 9 12 -6 1 -17 -14 -20 -34 -3 -31 5 1 13 -4 18 -12 7 -10 8 -8 4
5 -5 15 -2 16 14 7 10 -5 22 -16 26 -23 5 -7 0 -6 -11 3 -17 14 -18 13 -12 -3
4 -10 3 -16 -2 -13 -10 7 -64 29 -72 30 -3 1 -13 9 -23 19 -21 21 -33 23 -16
2 10 -12 10 -22 1 -43 -10 -24 -10 -25 3 -9 13 17 17 16 75 -13 34 -17 61 -33
61 -36 0 -3 -9 0 -19 6 -28 15 -51 12 -51 -5 0 -8 3 -14 8 -12 4 1 18 -8 32
-20 13 -13 19 -23 12 -23 -6 0 -14 5 -17 10 -4 6 -11 8 -16 5 -5 -3 -6 2 -3
12 5 17 5 17 -8 1 -9 -10 -23 -14 -41 -11 -18 4 -27 1 -27 -8 0 -7 3 -10 6 -6
3 3 25 0 49 -8 24 -7 47 -10 51 -6 4 3 4 1 1 -5 -4 -8 -20 -9 -47 -4 -48 9
-53 -5 -7 -20 l32 -10 -35 4 c-31 4 -32 4 -12 -6 12 -6 22 -15 22 -20 0 -11
-17 -10 -25 2 -4 6 -11 8 -16 5 -5 -4 -9 -1 -9 6 0 7 -3 9 -6 6 -4 -4 -2 -13
4 -20 7 -8 10 -16 8 -18 -2 -2 11 -4 30 -4 19 0 33 -4 32 -10 -4 -14 -28 -15
-28 -2 0 8 -3 8 -8 2 -4 -5 -18 -11 -30 -13 -20 -3 -23 0 -18 20 3 13 3 17 0
11 -3 -7 -9 -13 -13 -13 -10 0 -7 403 3 419 5 9 5 12 0 8 -15 -9 -11 220 4
234 15 16 16 29 1 29 -5 0 -8 -4 -4 -9 3 -5 1 -12 -4 -15 -6 -4 -9 20 -8 56 2
50 6 65 21 74 17 10 17 12 2 17 -10 4 -15 3 -11 -3 3 -6 2 -10 -3 -10 -5 0 -9
35 -10 78 -1 75 0 78 23 80 13 1 27 -3 30 -8 3 -6 12 -10 18 -10 7 0 6 4 -3
11 -12 8 -11 9 5 7 13 -3 19 -10 17 -23 -2 -16 -1 -17 7 -5 5 8 7 18 5 22 -3
4 14 9 38 9 24 1 55 3 69 4 17 3 26 -1 26 -11 0 -8 -6 -13 -14 -10 -7 3 -13 1
-13 -3 0 -8 13 -16 35 -20 6 -1 15 -12 22 -24 l12 -22 -2 23 c-1 12 -6 22 -11
22 -6 0 -5 5 2 12 15 15 15 28 1 28 -5 0 -8 -4 -5 -9 3 -5 -1 -14 -9 -21 -11
-9 -14 -8 -12 9 1 12 5 21 10 21 4 0 5 5 1 11 -4 8 0 9 15 4 12 -4 21 -2 21 4
0 6 5 11 10 11 6 0 10 -4 10 -8z m623 -9 c31 -6 38 -14 42 -49 4 -38 -27 -49
-55 -19 -13 13 -26 23 -29 21 -3 -2 -15 8 -25 22 -11 14 -13 22 -6 17 10 -6
12 -4 7 8 -4 12 -1 14 16 10 12 -3 34 -7 50 -10z m9 -102 c11 6 19 6 23 -1 5
-8 12 -7 23 2 13 11 14 11 10 -2 -3 -9 -16 -15 -34 -14 -16 0 -32 -5 -36 -11
-12 -19 -53 -11 -53 11 -1 26 16 36 35 19 10 -9 20 -11 32 -4z m-312 5 c0 -3
-4 -8 -10 -11 -5 -3 -10 -1 -10 4 0 6 5 11 10 11 6 0 10 -2 10 -4z m161 -9
c-1 -12 -15 -9 -19 4 -3 6 1 10 8 8 6 -3 11 -8 11 -12z m202 -39 c4 -10 7 -10
15 0 10 14 45 5 36 -9 -3 -6 -1 -16 6 -24 8 -10 8 -15 0 -20 -14 -9 -25 1 -25
23 0 12 -9 17 -31 17 -19 -1 -31 4 -31 12 0 17 24 17 30 1z m-363 -18 c0 -5
-2 -10 -4 -10 -3 0 -8 5 -11 10 -3 6 -1 10 4 10 6 0 11 -4 11 -10z m-480 -61
c0 -11 -53 -42 -77 -45 -22 -2 -30 6 -16 19 3 4 11 2 18 -3 8 -6 18 -5 31 6
18 14 18 15 -3 4 -26 -12 -31 1 -9 20 8 6 12 19 9 28 -5 13 -2 12 20 -4 14
-10 27 -22 27 -25z m935 -109 c3 -5 1 -10 -4 -10 -6 0 -11 5 -11 10 0 6 2 10
4 10 3 0 8 -4 11 -10z m-957 -65 c4 0 7 -9 7 -20 -1 -11 4 -23 9 -27 6 -4 7
-10 3 -14 -4 -4 -15 0 -24 9 -10 9 -13 17 -7 17 5 0 10 9 11 19 1 14 -4 19
-18 16 -10 -2 -19 1 -19 6 0 6 -4 7 -10 4 -5 -3 -10 -2 -10 4 0 17 25 19 38 2
7 -9 16 -16 20 -16z m-44 -18 c-3 -8 12 -25 36 -42 22 -15 38 -30 35 -33 -3
-3 0 -11 6 -19 9 -10 8 -17 -1 -28 -10 -12 -10 -15 2 -15 8 0 15 -6 15 -14 0
-8 -6 -12 -14 -9 -7 3 -13 8 -13 12 0 4 -10 7 -22 8 -22 2 -22 1 5 -19 15 -11
32 -30 38 -41 9 -20 9 -20 -10 2 -12 13 -21 20 -21 16 0 -3 -13 7 -30 23 -32
33 -41 53 -13 31 9 -8 14 -9 10 -3 -4 7 1 18 10 25 15 12 16 12 11 -3 -7 -18
0 -30 13 -22 5 3 4 15 -2 26 -9 16 -8 23 2 29 9 5 2 7 -18 4 -35 -4 -41 3 -21
23 9 9 9 12 0 12 -7 0 -12 -5 -12 -11 0 -5 -5 -7 -10 -4 -6 4 -7 11 -4 17 5 7
2 8 -5 3 -9 -5 -10 -10 -2 -18 15 -15 14 -27 -1 -23 -7 1 -10 1 -5 -1 10 -6 9
-23 -2 -23 -16 0 -21 31 -9 53 7 12 14 27 14 32 1 6 2 13 3 18 0 4 5 7 11 7 5
0 7 -6 4 -13z m22 -14 c-10 -10 -19 5 -10 18 6 11 8 11 12 0 2 -7 1 -15 -2
-18z m972 -55 c-2 -5 -8 -9 -13 -9 -5 0 -11 4 -13 9 -1 5 4 9 13 9 9 0 14 -4
13 -9z m-977 -28 c6 0 7 5 3 12 -5 7 -3 8 5 3 16 -9 0 -27 -29 -32 -18 -3 -19
-1 -8 17 7 11 14 16 16 10 2 -5 8 -10 13 -10z m-31 -40 c0 -5 -5 -10 -11 -10
-5 0 -7 5 -4 10 3 6 8 10 11 10 2 0 4 -4 4 -10z m120 -127 c0 -1 -8 1 -17 4
-16 6 -17 5 -3 -12 14 -18 14 -18 -12 0 -28 20 -36 35 -19 35 5 0 12 -6 14
-12 4 -10 6 -10 6 -1 1 7 -14 20 -31 28 -26 12 -29 13 -15 1 12 -9 14 -16 8
-21 -6 -3 -11 -1 -11 4 0 6 -7 11 -17 11 -15 0 -14 2 2 20 17 19 18 19 56 -17
22 -21 39 -38 39 -40z m905 -13 c3 -6 -1 -7 -9 -4 -18 7 -21 14 -7 14 6 0 13
-4 16 -10z m-30 -97 c0 -30 -22 -43 -31 -18 -5 13 3 25 31 45 1 0 1 -12 0 -27z
m-42 -18 c4 -8 2 -17 -3 -20 -6 -4 -10 3 -10 14 0 25 6 27 13 6z m-23 -14 c0
-12 -20 -25 -27 -18 -7 7 6 27 18 27 5 0 9 -4 9 -9z m70 -76 c0 -16 -1 -16
-37 -20 -27 -3 -30 10 -5 24 25 15 42 13 42 -4z m-950 -45 c0 -5 -4 -10 -10
-10 -5 0 -10 5 -10 10 0 6 5 10 10 10 6 0 10 -4 10 -10z m910 -110 c0 -22 -27
-26 -54 -9 l-29 18 41 -1 c23 0 42 -4 42 -8z m1 -93 c-1 -12 -15 -9 -19 4 -3
6 1 10 8 8 6 -3 11 -8 11 -12z"/>
<path d="M1055 1679 c-4 -6 -13 -8 -21 -5 -8 3 -14 1 -14 -4 0 -16 37 -11 44
5 6 17 0 20 -9 4z"/>
<path d="M1041 1511 c-10 -6 -9 -10 3 -14 8 -3 18 -2 21 3 8 13 -9 20 -24 11z"/>
<path d="M1000 1500 c-9 -6 -10 -10 -3 -10 6 0 15 5 18 10 8 12 4 12 -15 0z"/>
<path d="M895 1452 c-11 -10 -30 -29 -43 -43 l-23 -26 25 1 c14 1 34 10 45 20
12 11 25 15 33 10 17 -11 48 -13 42 -2 -3 4 0 9 5 9 6 1 16 2 21 3 6 0 11 5
13 10 3 12 -31 17 -39 5 -3 -6 -15 -7 -26 -3 -15 4 -18 3 -13 -6 5 -9 4 -11
-4 -6 -8 6 -9 12 -2 20 10 12 5 26 -8 26 -3 -1 -15 -9 -26 -18z m22 -3 c-9 -6
-15 -14 -12 -18 6 -10 -21 -34 -42 -37 -9 -2 -2 11 18 32 18 19 38 34 43 34 6
0 3 -5 -7 -11z"/>
<path d="M879 1413 c-13 -16 -12 -17 4 -4 9 7 17 15 17 17 0 8 -8 3 -21 -13z"/>
<path d="M1043 1438 c-11 -15 -11 -38 0 -38 4 0 12 0 19 0 6 0 3 7 -8 15 -13
10 -14 13 -3 10 10 -4 16 0 16 10 0 18 -11 20 -24 3z"/>
<path d="M781 1364 c6 -7 16 -11 21 -8 11 7 3 17 -18 20 -12 2 -13 -1 -3 -12z"/>
<path d="M1201 1511 c-8 -5 -23 -8 -33 -6 -10 2 -16 0 -13 -5 7 -11 45 -4 59
10 12 12 6 13 -13 1z"/>
<path d="M1635 1480 c-3 -5 -3 -10 2 -10 4 0 0 -5 -10 -11 -9 -6 -15 -14 -12
-20 4 -5 -1 -9 -9 -9 -9 0 -16 -5 -16 -10 0 -7 7 -7 20 0 11 6 18 15 15 19 -3
5 2 12 11 15 8 3 13 10 10 15 -4 5 0 12 6 14 9 4 10 6 1 6 -6 1 -15 -3 -18 -9z"/>
<path d="M1284 1458 c39 -29 65 -34 40 -7 -9 10 -19 17 -22 14 -3 -2 -14 0
-26 6 -12 6 -9 0 8 -13z"/>
<path d="M1592 1464 c-12 -8 -22 -23 -22 -32 1 -14 2 -14 12 3 6 11 19 25 27
32 23 18 9 16 -17 -3z"/>
<path d="M1154 1429 c-10 -11 -12 -19 -5 -24 16 -10 31 3 25 23 -3 9 2 5 11
-11 12 -21 20 -25 33 -18 9 4 25 7 35 6 9 -2 15 1 11 6 -3 5 -11 9 -18 9 -8 0
-19 6 -25 14 -16 19 -48 16 -67 -5z m59 -4 c4 -8 1 -17 -5 -21 -7 -4 -8 -3 -4
4 4 7 2 12 -4 12 -6 0 -8 5 -5 10 8 14 12 13 18 -5z"/>
<path d="M1630 1410 c0 -5 5 -10 10 -10 6 0 10 5 10 10 0 6 -4 10 -10 10 -5 0
-10 -4 -10 -10z"/>
<path d="M1324 1388 c-4 -7 -3 -10 1 -5 5 4 16 0 25 -8 15 -13 17 -13 17 0 0
8 -3 13 -5 10 -3 -3 -11 0 -18 6 -9 7 -14 6 -20 -3z"/>
<path d="M1650 1390 c-11 -7 -11 -10 -2 -10 8 0 10 -5 6 -12 -4 -7 -3 -9 1 -5
7 6 17 37 12 37 -1 0 -9 -5 -17 -10z"/>
<path d="M1385 1371 c-6 -10 11 -24 33 -27 10 -2 8 3 -4 17 -20 22 -21 22 -29
10z"/>
<path d="M1630 1350 c0 -6 7 -10 15 -10 8 0 15 2 15 4 0 2 -7 6 -15 10 -8 3
-15 1 -15 -4z"/>
<path d="M1607 1333 c10 -3 10 -10 2 -24 -5 -11 -15 -17 -21 -13 -7 4 -6 9 3
15 10 6 7 8 -8 6 -24 -1 -19 -12 22 -50 16 -15 16 -18 3 -14 -16 6 -20 -16 -5
-28 4 -3 5 -2 3 1 -3 3 6 16 20 28 19 16 22 24 13 36 -9 13 -10 12 -5 -2 7
-22 -5 -30 -20 -14 -13 15 7 51 22 38 4 -4 2 1 -5 11 -7 9 -19 17 -25 16 -7 0
-6 -2 1 -6z"/>
<path d="M1651 1303 c-1 -17 16 -25 25 -12 4 7 3 9 -4 5 -5 -3 -13 0 -15 6 -4
9 -6 10 -6 1z"/>
<path d="M1657 1249 c7 -7 15 -10 18 -7 3 3 -2 9 -12 12 -14 6 -15 5 -6 -5z"/>
<path d="M1627 1187 c-10 -10 -17 -20 -15 -22 6 -6 40 24 37 32 -2 5 -12 0
-22 -10z"/>
<path d="M1638 1113 c7 -3 16 -2 19 1 4 3 -2 6 -13 5 -11 0 -14 -3 -6 -6z"/>
<path d="M1526 981 c-4 -6 -2 -18 4 -26 10 -12 9 -16 -4 -21 -20 -8 -21 -20
-2 -27 10 -4 13 -1 9 9 -3 7 -1 14 5 14 17 0 21 27 8 46 -9 12 -15 14 -20 5z
m18 -17 c3 -8 2 -12 -4 -9 -6 3 -10 10 -10 16 0 14 7 11 14 -7z"/>
<path d="M1216 1581 c4 -14 2 -21 -4 -17 -5 3 -15 -1 -21 -8 -9 -11 -9 -14 1
-12 7 1 19 5 26 9 7 5 12 3 12 -5 0 -10 2 -10 9 1 6 9 10 10 14 2 4 -7 5 -8 4
0 -2 6 -6 9 -11 7 -4 -2 -14 8 -22 22 -15 25 -15 25 -8 1z"/>
<path d="M1273 1557 c0 -24 43 -39 58 -21 9 11 9 18 1 26 -12 12 -35 1 -27
-13 10 -16 -7 -10 -20 7 -10 15 -12 15 -12 1z m57 -6 c0 -6 -4 -12 -8 -15 -5
-3 -9 1 -9 9 0 8 4 15 9 15 4 0 8 -4 8 -9z"/>
<path d="M875 1511 c-3 -5 -2 -12 3 -15 5 -3 9 1 9 9 0 17 -3 19 -12 6z"/>
<path d="M800 1420 c-9 -6 -10 -10 -3 -10 6 0 15 5 18 10 8 12 4 12 -15 0z"/>
<path d="M687 1514 c-3 -3 -3 -12 0 -20 7 -18 -5 -18 -23 1 -9 8 -23 15 -32
14 -13 0 -12 -2 4 -9 23 -9 41 -30 27 -30 -5 0 -15 6 -23 13 -12 10 -12 9 -1
-5 8 -11 9 -18 3 -18 -6 0 -16 8 -21 18 -9 15 -10 15 -11 1 0 -21 -30 -34 -30
-14 0 8 -5 15 -10 15 -7 0 -7 -7 0 -20 6 -12 16 -17 22 -14 7 4 25 9 42 11 64
7 57 2 61 41 2 24 2 25 -8 16z"/>
<path d="M510 1490 c0 -5 5 -10 10 -10 6 0 10 5 10 10 0 6 -4 10 -10 10 -5 0
-10 -4 -10 -10z"/>
<path d="M537 1461 c-4 -17 -3 -21 5 -13 5 5 8 16 6 23 -3 8 -7 3 -11 -10z"/>
<path d="M654 1435 c-22 -17 -38 -20 -29 -5 3 6 1 10 -5 10 -7 0 -10 -6 -7
-12 2 -7 13 -12 23 -10 10 2 24 4 31 4 7 1 10 5 7 9 -2 4 2 10 8 12 7 3 8 6 2
6 -5 1 -19 -6 -30 -14z"/>
<path d="M510 1430 c0 -6 7 -10 15 -10 8 0 15 2 15 4 0 2 -7 6 -15 10 -8 3
-15 1 -15 -4z"/>
<path d="M553 1418 c-2 -18 0 -20 7 -8 12 18 13 30 2 30 -4 0 -9 -10 -9 -22z"/>
<path d="M580 1415 c-7 -9 -10 -18 -6 -22 3 -3 6 -1 6 6 0 7 5 9 11 5 12 -7
-35 -54 -54 -54 -6 0 -7 -3 -4 -6 9 -9 77 38 77 54 0 6 -5 12 -11 12 -5 0 -7
5 -4 10 10 15 -1 12 -15 -5z"/>
<path d="M525 1390 c3 -5 8 -10 11 -10 2 0 4 5 4 10 0 6 -5 10 -11 10 -5 0 -7
-4 -4 -10z"/>
<path d="M570 1330 c0 -5 -5 -9 -11 -7 -6 1 -14 -5 -16 -13 -4 -12 -3 -12 5
-2 5 8 13 13 18 12 5 -1 10 3 12 9 2 6 1 11 -2 11 -3 0 -6 -4 -6 -10z"/>
<path d="M522 1310 c0 -14 2 -19 5 -12 2 6 2 18 0 25 -3 6 -5 1 -5 -13z"/>
<path d="M515 1171 c-3 -6 -1 -11 4 -11 6 0 11 -7 11 -15 0 -8 5 -15 10 -15 7
0 7 8 -1 23 -16 30 -16 30 -24 18z"/>
<path d="M514 1009 c-4 -7 -3 -9 4 -5 5 3 13 0 15 -6 4 -9 6 -10 6 -1 1 17
-16 25 -25 12z"/>
<path d="M531 874 c0 -11 3 -14 6 -6 3 7 2 16 -1 19 -3 4 -6 -2 -5 -13z"/>
<path d="M513 866 c1 -11 9 -21 17 -23 10 -3 11 -2 4 4 -6 4 -14 15 -17 23 -5
11 -6 9 -4 -4z"/>
<path d="M540 750 c0 -5 5 -10 10 -10 6 0 10 5 10 10 0 6 -4 10 -10 10 -5 0
-10 -4 -10 -10z"/>
<path d="M563 731 c-13 -11 -23 -22 -23 -25 0 -10 39 18 44 31 7 17 6 16 -21
-6z"/>
<path d="M515 730 c3 -5 8 -10 11 -10 2 0 4 5 4 10 0 6 -5 10 -11 10 -5 0 -7
-4 -4 -10z"/>
<path d="M516 693 c-6 -14 -5 -15 5 -6 7 7 10 15 7 18 -3 3 -9 -2 -12 -12z"/>
<path d="M565 690 c3 -5 8 -10 11 -10 2 0 4 5 4 10 0 6 -5 10 -11 10 -5 0 -7
-4 -4 -10z"/>
<path d="M516 635 c-3 -8 -1 -15 4 -15 6 0 10 7 10 15 0 8 -2 15 -4 15 -2 0
-6 -7 -10 -15z"/>
<path d="M1383 1519 c-2 -17 0 -20 6 -10 7 11 10 9 15 -6 4 -11 16 -29 28 -39
12 -11 18 -14 15 -7 -4 6 -3 14 2 18 16 9 8 41 -11 42 -10 1 -18 -3 -18 -9 0
-5 -8 0 -18 12 l-18 22 -1 -23z m62 -39 c-5 -8 -11 -8 -17 -2 -6 6 -7 16 -3
22 5 8 11 8 17 2 6 -6 7 -16 3 -22z"/>
<path d="M1393 1433 c4 -3 1 -13 -6 -22 -11 -14 -10 -14 5 -2 16 12 16 31 1
31 -4 0 -3 -3 0 -7z"/>
<path d="M606 1312 c-2 -4 4 -8 14 -8 10 0 16 4 14 8 -3 4 -9 8 -14 8 -5 0
-11 -4 -14 -8z"/>
<path d="M646 1017 c3 -10 9 -15 12 -12 3 3 0 11 -7 18 -10 9 -11 8 -5 -6z"/>
<path d="M1535 630 c-3 -5 -1 -10 4 -10 6 0 11 5 11 10 0 6 -2 10 -4 10 -3 0
-8 -4 -11 -10z"/>
<path d="M1255 1893 c3 -3 0 -11 -5 -18 -7 -8 -5 -12 4 -12 14 0 16 22 3 32
-4 3 -5 2 -2 -2z"/>
<path d="M915 1841 c-3 -5 -2 -12 3 -15 5 -3 9 1 9 9 0 17 -3 19 -12 6z"/>
<path d="M1293 1836 c0 -15 22 -15 34 0 4 5 4 6 -1 2 -5 -4 -14 -3 -21 2 -8 7
-12 5 -12 -4z"/>
<path d="M885 1810 c-3 -6 1 -7 9 -4 18 7 21 14 7 14 -6 0 -13 -4 -16 -10z"/>
<path d="M1324 1809 c-3 -6 -2 -15 3 -20 5 -5 9 -1 9 11 0 23 -2 24 -12 9z"/>
<path d="M776 1783 c-6 -14 -5 -15 5 -6 7 7 10 15 7 18 -3 3 -9 -2 -12 -12z"/>
<path d="M1395 1790 c-3 -5 -1 -10 4 -10 6 0 11 5 11 10 0 6 -2 10 -4 10 -3 0
-8 -4 -11 -10z"/>
<path d="M879 1785 c-1 -3 -2 -9 -3 -14 0 -5 -4 -13 -8 -17 -5 -4 -8 -12 -8
-18 1 -13 23 23 26 42 2 11 -5 18 -7 7z"/>
<path d="M954 1781 c4 -5 0 -11 -6 -14 -7 -3 -3 -4 9 -4 17 1 19 4 11 14 -12
15 -22 18 -14 4z"/>
<path d="M1277 1783 c-10 -9 -9 -23 1 -23 5 0 9 7 9 15 0 17 -1 18 -10 8z"/>
<path d="M1347 1777 c-3 -8 1 -14 8 -14 7 0 11 6 8 14 -3 7 -6 13 -8 13 -2 0
-5 -6 -8 -13z"/>
<path d="M1404 1748 l-19 -23 23 19 c21 18 27 26 19 26 -2 0 -12 -10 -23 -22z"/>
<path d="M760 1746 c-5 -5 -10 -15 -10 -20 0 -6 5 -3 11 7 6 9 14 15 19 12 5
-3 11 -2 14 3 7 12 -21 11 -34 -2z"/>
<path d="M900 1751 c0 -5 11 -8 25 -8 30 0 28 6 -4 12 -11 2 -21 0 -21 -4z"/>
<path d="M1240 1750 c-13 -8 -12 -10 3 -10 9 0 17 5 17 10 0 12 -1 12 -20 0z"/>
<path d="M1300 1756 c0 -2 7 -6 15 -10 8 -3 15 -1 15 4 0 6 -7 10 -15 10 -8 0
-15 -2 -15 -4z"/>
<path d="M1370 1750 c-9 -6 -10 -10 -3 -10 6 0 15 5 18 10 8 12 4 12 -15 0z"/>
<path d="M835 1730 c3 -5 8 -10 11 -10 2 0 4 5 4 10 0 6 -5 10 -11 10 -5 0 -7
-4 -4 -10z"/>
<path d="M1270 1730 c0 -5 5 -10 10 -10 6 0 10 5 10 10 0 6 -4 10 -10 10 -5 0
-10 -4 -10 -10z"/>
<path d="M1334 1728 c-4 -7 -4 -10 1 -6 4 4 14 0 21 -10 7 -9 14 -15 17 -12 2
3 -4 13 -13 23 -14 15 -20 16 -26 5z"/>
<path d="M916 1715 c-3 -8 -1 -15 4 -15 6 0 10 7 10 15 0 8 -2 15 -4 15 -2 0
-6 -7 -10 -15z"/>
<path d="M950 1722 c0 -15 11 -21 27 -15 12 5 12 7 1 14 -17 11 -28 11 -28 1z"/>
<path d="M1415 1722 c18 -17 55 -24 55 -11 0 7 -3 10 -6 6 -3 -3 -18 -1 -33 4
-15 6 -22 6 -16 1z"/>
<path d="M1240 1710 c0 -5 5 -10 10 -10 6 0 10 5 10 10 0 6 -4 10 -10 10 -5 0
-10 -4 -10 -10z"/>
<path d="M1295 1709 c-11 -16 -1 -19 13 -3 7 8 8 14 3 14 -5 0 -13 -5 -16 -11z"/>
<path d="M1335 1700 c6 -10 4 -12 -9 -7 -9 4 -15 3 -11 -2 3 -5 -1 -12 -7 -14
-7 -3 -8 -6 -2 -6 5 -1 18 5 29 12 14 11 15 16 5 22 -9 6 -11 4 -5 -5z"/>
<path d="M710 1695 c0 -13 20 -35 32 -35 4 0 8 5 8 11 0 5 -4 8 -9 4 -6 -3
-14 3 -20 12 -6 10 -11 13 -11 8z"/>
<path d="M1265 1689 c-4 -6 -5 -12 -2 -15 2 -3 7 2 10 11 7 17 1 20 -8 4z"/>
<path d="M1485 1690 c-3 -5 -1 -18 5 -27 9 -15 10 -14 4 6 -4 17 -3 21 6 16 9
-5 11 -4 6 3 -9 15 -13 15 -21 2z"/>
<path d="M1430 1670 c8 -5 20 -10 25 -10 6 0 3 5 -5 10 -8 5 -19 10 -25 10 -5
0 -3 -5 5 -10z"/>
<path d="M1470 1654 c0 -13 18 -39 24 -34 2 3 -2 14 -10 24 -8 11 -14 16 -14
10z"/>
<path d="M717 1643 c-4 -3 -7 -11 -7 -17 0 -6 5 -5 12 2 6 6 9 14 7 17 -3 3
-9 2 -12 -2z"/>
<path d="M743 1631 c-7 -11 -9 -22 -6 -25 12 -12 31 -6 38 12 5 14 4 15 -6 5
-18 -18 -34 -16 -19 2 7 9 11 17 9 20 -3 2 -10 -4 -16 -14z"/>
<path d="M1416 1625 c-25 -19 -16 -19 20 0 16 8 22 15 14 15 -8 -1 -24 -7 -34
-15z"/>
<path d="M1460 1605 c10 -12 8 -16 -11 -24 -13 -5 -19 -10 -13 -10 7 -1 25 6
40 14 20 10 23 15 12 15 -10 0 -18 5 -18 10 0 6 -5 10 -11 10 -8 0 -8 -5 1
-15z"/>
<path d="M1430 1600 c0 -5 5 -10 11 -10 5 0 7 5 4 10 -3 6 -8 10 -11 10 -2 0
-4 -4 -4 -10z"/>
<path d="M544 1580 c0 -13 4 -16 10 -10 7 7 7 13 0 20 -6 6 -10 3 -10 -10z"/>
<path d="M590 1585 c0 -8 4 -15 8 -15 5 0 9 7 9 15 0 8 -4 15 -9 15 -4 0 -8
-7 -8 -15z"/>
<path d="M1411 1584 c0 -11 3 -14 6 -6 3 7 2 16 -1 19 -3 4 -6 -2 -5 -13z"/>
<path d="M1659 1583 c-13 -16 -12 -17 4 -4 9 7 17 15 17 17 0 8 -8 3 -21 -13z"/>
<path d="M515 1581 c-3 -5 -2 -12 3 -15 5 -3 9 1 9 9 0 17 -3 19 -12 6z"/>
<path d="M635 1570 c3 -5 8 -10 11 -10 2 0 4 5 4 10 0 6 -5 10 -11 10 -5 0 -7
-4 -4 -10z"/>
<path d="M376 1492 c-3 -5 1 -9 9 -9 8 0 12 4 9 9 -3 4 -7 8 -9 8 -2 0 -6 -4
-9 -8z"/>
<path d="M1730 1490 c0 -5 5 -10 11 -10 5 0 7 5 4 10 -3 6 -8 10 -11 10 -2 0
-4 -4 -4 -10z"/>
<path d="M1776 1488 c3 -4 11 -5 19 -1 21 7 19 12 -4 10 -11 0 -18 -5 -15 -9z"/>
<path d="M399 1463 c-13 -16 -12 -17 4 -4 9 7 17 15 17 17 0 8 -8 3 -21 -13z"/>
<path d="M440 1405 c-7 -9 -11 -17 -9 -20 3 -2 10 5 17 15 14 24 10 26 -8 5z"/>
<path d="M389 1387 c6 -8 7 -18 3 -22 -4 -5 -1 -5 6 -1 10 6 10 11 1 22 -6 8
-14 14 -16 14 -3 0 0 -6 6 -13z"/>
<path d="M330 1370 c0 -5 5 -10 11 -10 5 0 7 5 4 10 -3 6 -8 10 -11 10 -2 0
-4 -4 -4 -10z"/>
<path d="M428 1363 c7 -3 16 -2 19 1 4 3 -2 6 -13 5 -11 0 -14 -3 -6 -6z"/>
<path d="M1753 1357 c0 -8 6 -14 14 -14 9 0 10 4 2 14 -6 7 -12 13 -14 13 -1
0 -2 -6 -2 -13z"/>
<path d="M385 1330 c-3 -6 1 -7 9 -4 18 7 21 14 7 14 -6 0 -13 -4 -16 -10z"/>
<path d="M420 1335 c0 -2 6 -8 13 -14 10 -8 14 -7 14 2 0 8 -6 14 -14 14 -7 0
-13 -1 -13 -2z"/>
<path d="M1739 1303 c-13 -16 -12 -17 4 -4 9 7 17 15 17 17 0 8 -8 3 -21 -13z"/>
<path d="M384 1292 c4 -3 14 -7 22 -8 9 -1 13 0 10 4 -4 3 -14 7 -22 8 -9 1
-13 0 -10 -4z"/>
<path d="M456 1287 c3 -10 9 -15 12 -12 3 3 0 11 -7 18 -10 9 -11 8 -5 -6z"/>
<path d="M425 1270 c-3 -6 1 -7 9 -4 18 7 21 14 7 14 -6 0 -13 -4 -16 -10z"/>
<path d="M1753 1255 c0 -8 4 -12 9 -9 5 3 6 10 3 15 -9 13 -12 11 -12 -6z"/>
<path d="M355 1220 c10 -11 20 -20 23 -20 3 0 -3 9 -13 20 -10 11 -20 20 -23
20 -3 0 3 -9 13 -20z"/>
<path d="M410 1231 c0 -6 4 -13 10 -16 6 -3 7 1 4 9 -7 18 -14 21 -14 7z"/>
<path d="M439 1213 c0 -5 -2 -16 -4 -25 -2 -10 0 -18 5 -18 4 0 8 11 8 25 0
22 -7 36 -9 18z"/>
<path d="M1731 1197 c-13 -21 -12 -21 5 -5 10 10 16 20 13 22 -3 3 -11 -5 -18
-17z"/>
<path d="M386 1170 c6 -8 10 -23 8 -33 -1 -11 0 -16 4 -13 12 13 10 36 -6 48
-15 11 -15 11 -6 -2z"/>
<path d="M1770 1170 c0 -5 5 -10 11 -10 5 0 7 5 4 10 -3 6 -8 10 -11 10 -2 0
-4 -4 -4 -10z"/>
<path d="M354 1159 c-3 -6 2 -18 12 -27 17 -16 17 -16 5 0 -7 9 -10 22 -6 28
3 5 4 10 1 10 -3 0 -8 -5 -12 -11z"/>
<path d="M450 1150 c0 -5 5 -10 10 -10 6 0 10 5 10 10 0 6 -4 10 -10 10 -5 0
-10 -4 -10 -10z"/>
<path d="M427 1120 c3 -11 9 -20 15 -20 5 0 4 9 -2 20 -6 11 -12 20 -14 20 -2
0 -2 -9 1 -20z"/>
<path d="M1795 1131 c-3 -5 -2 -12 3 -15 5 -3 9 1 9 9 0 17 -3 19 -12 6z"/>
<path d="M360 1090 c-9 -6 -10 -10 -3 -10 6 0 15 5 18 10 8 12 4 12 -15 0z"/>
<path d="M447 1080 c-9 -11 -13 -20 -7 -20 5 0 14 9 20 20 6 11 9 20 8 20 -2
0 -11 -9 -21 -20z"/>
<path d="M1725 1089 c-4 -6 -5 -12 -2 -15 2 -3 7 2 10 11 7 17 1 20 -8 4z"/>
<path d="M379 1063 c-13 -16 -12 -17 4 -4 9 7 17 15 17 17 0 8 -8 3 -21 -13z"/>
<path d="M1753 1045 c0 -8 4 -12 9 -9 5 3 6 10 3 15 -9 13 -12 11 -12 -6z"/>
<path d="M450 1035 c0 -8 4 -15 10 -15 5 0 7 7 4 15 -4 8 -8 15 -10 15 -2 0
-4 -7 -4 -15z"/>
<path d="M357 1021 c-11 -14 -10 -15 7 -1 21 16 24 15 44 -9 11 -14 11 -14 5
3 -5 15 -3 17 8 11 8 -5 11 -4 6 1 -14 15 -57 12 -70 -5z"/>
<path d="M367 989 c7 -7 15 -10 18 -7 3 3 -2 9 -12 12 -14 6 -15 5 -6 -5z"/>
<path d="M440 976 c0 -2 7 -7 16 -10 8 -3 12 -2 9 4 -6 10 -25 14 -25 6z"/>
<path d="M435 951 c-3 -5 -2 -12 3 -15 5 -3 9 1 9 9 0 17 -3 19 -12 6z"/>
<path d="M335 930 c-3 -5 -1 -10 4 -10 6 0 11 5 11 10 0 6 -2 10 -4 10 -3 0
-8 -4 -11 -10z"/>
<path d="M419 928 c-5 -18 -6 -38 -1 -34 7 8 12 36 6 36 -2 0 -4 -1 -5 -2z"/>
<path d="M437 901 c-4 -17 -3 -21 5 -13 5 5 8 16 6 23 -3 8 -7 3 -11 -10z"/>
<path d="M1740 910 c-9 -6 -10 -10 -3 -10 6 0 15 5 18 10 8 12 4 12 -15 0z"/>
<path d="M1770 889 c0 -5 5 -7 10 -4 6 3 10 8 10 11 0 2 -4 4 -10 4 -5 0 -10
-5 -10 -11z"/>
<path d="M356 868 c3 -5 10 -6 15 -3 13 9 11 12 -6 12 -8 0 -12 -4 -9 -9z"/>
<path d="M1724 872 c4 -3 14 -7 22 -8 9 -1 13 0 10 4 -4 3 -14 7 -22 8 -9 1
-13 0 -10 -4z"/>
<path d="M1807 869 c7 -7 15 -10 18 -7 3 3 -2 9 -12 12 -14 6 -15 5 -6 -5z"/>
<path d="M394 856 c1 -8 5 -18 8 -22 4 -3 5 1 4 10 -1 8 -5 18 -8 22 -4 3 -5
-1 -4 -10z"/>
<path d="M440 830 c-9 -6 -10 -10 -3 -10 6 0 15 5 18 10 8 12 4 12 -15 0z"/>
<path d="M1739 823 c-13 -16 -12 -17 4 -4 16 13 21 21 13 21 -2 0 -10 -8 -17
-17z"/>
<path d="M1657 813 c-10 -10 -8 -33 3 -33 5 0 6 7 3 17 -5 12 -3 14 7 8 9 -5
11 -4 6 3 -8 14 -10 14 -19 5z"/>
<path d="M1620 785 c-10 -12 -9 -16 4 -21 8 -3 21 -4 28 -1 7 3 2 6 -11 6 -20
1 -21 3 -11 16 7 8 10 15 7 15 -2 0 -10 -7 -17 -15z"/>
<path d="M336 732 c-2 -4 -1 -14 4 -22 7 -11 9 -9 7 8 -1 24 -3 26 -11 14z"/>
<path d="M420 735 c0 -2 6 -8 13 -14 10 -8 14 -7 14 2 0 8 -6 14 -14 14 -7 0
-13 -1 -13 -2z"/>
<path d="M1655 701 c-3 -5 0 -13 6 -17 7 -4 9 -3 5 4 -3 5 0 13 6 15 9 4 10 6
1 6 -6 1 -14 -3 -18 -8z"/>
<path d="M1754 699 c-3 -6 -2 -15 3 -20 5 -5 9 -1 9 11 0 23 -2 24 -12 9z"/>
<path d="M440 676 c0 -2 8 -10 18 -17 15 -13 16 -12 3 4 -13 16 -21 21 -21 13z"/>
<path d="M1620 670 c-8 -5 -10 -10 -5 -10 6 0 17 5 25 10 8 5 11 10 5 10 -5 0
-17 -5 -25 -10z"/>
<path d="M1639 658 c-5 -18 -6 -39 -2 -34 4 3 11 2 17 -4 8 -6 12 -3 12 9 0
12 -5 17 -15 13 -9 -3 -12 -1 -7 6 4 7 5 12 2 12 -3 0 -6 -1 -7 -2z"/>
<path d="M1598 643 c7 -3 16 -2 19 1 4 3 -2 6 -13 5 -11 0 -14 -3 -6 -6z"/>
<path d="M440 610 c-9 -6 -10 -10 -3 -10 6 0 15 5 18 10 8 12 4 12 -15 0z"/>
<path d="M1655 591 c-3 -5 -2 -12 3 -15 5 -3 9 1 9 9 0 17 -3 19 -12 6z"/>
<path d="M1626 573 c-6 -14 -5 -15 5 -6 7 7 10 15 7 18 -3 3 -9 -2 -12 -12z"/>
<path d="M430 576 c0 -2 7 -7 16 -10 8 -3 12 -2 9 4 -6 10 -25 14 -25 6z"/>
<path d="M1596 552 c-3 -5 1 -9 9 -9 8 0 12 4 9 9 -3 4 -7 8 -9 8 -2 0 -6 -4
-9 -8z"/>
<path d="M1621 504 c0 -11 3 -14 6 -6 3 7 2 16 -1 19 -3 4 -6 -2 -5 -13z"/>
<path d="M1545 430 c3 -5 11 -10 16 -10 6 0 7 5 4 10 -3 6 -11 10 -16 10 -6 0
-7 -4 -4 -10z"/>
<path d="M1585 410 c-3 -6 1 -7 9 -4 18 7 21 14 7 14 -6 0 -13 -4 -16 -10z"/>
</g>
</svg>
